<svg width="16" height="12" viewBox="0 0 16 12" fill="none" xmlns="http://www.w3.org/2000/svg">
<path d="M13.52 0H2.48C1.82226 0 1.19147 0.250465 0.726375 0.696295C0.261285 1.14213 0 1.7468 0 2.3773L0 9.6227C0 10.2532 0.261285 10.8579 0.726375 11.3037C1.19147 11.7495 1.82226 12 2.48 12H13.52C14.1777 12 14.8085 11.7495 15.2736 11.3037C15.7387 10.8579 16 10.2532 16 9.6227V2.3773C16 1.7468 15.7387 1.14213 15.2736 0.696295C14.8085 0.250465 14.1777 0 13.52 0ZM13.52 1.07362C13.6531 1.07376 13.7854 1.09262 13.9128 1.1296L9.1928 5.8612C9.03852 6.0156 8.85323 6.13847 8.6481 6.22241C8.44297 6.30635 8.22224 6.34963 7.9992 6.34963C7.77616 6.34963 7.55543 6.30635 7.3503 6.22241C7.14517 6.13847 6.95988 6.0156 6.8056 5.8612L2.0856 1.1296C2.21346 1.09237 2.34637 1.0735 2.48 1.07362H13.52ZM14.88 9.6227C14.88 9.96846 14.7367 10.3001 14.4817 10.5445C14.2266 10.789 13.8807 10.9264 13.52 10.9264H2.48C2.11931 10.9264 1.77338 10.789 1.51833 10.5445C1.26329 10.3001 1.12 9.96846 1.12 9.6227V2.3773C1.12053 2.19198 1.16254 2.00892 1.2432 1.84049L6 6.60276C6.25744 6.86297 6.56764 7.06998 6.91157 7.21108C7.2555 7.35219 7.62589 7.42441 8 7.42331C8.37408 7.42428 8.74443 7.35199 9.08834 7.2109C9.43225 7.0698 9.74248 6.86286 10 6.60276L14.7528 1.83666C14.834 2.00495 14.8763 2.18806 14.8768 2.37347L14.88 9.6227Z" fill="#838383"/>
</svg>
