<svg width="15" height="15" viewBox="0 0 15 15" fill="none" xmlns="http://www.w3.org/2000/svg">
<path d="M7.5 10.8445C5.65954 10.8445 4.16221 9.34419 4.16221 7.49999C4.16221 7.23613 4.19253 6.97727 4.25121 6.72713L5.35978 7.83793C5.505 8.7649 6.23766 9.49901 7.16273 9.64453L8.27095 10.755C8.0211 10.814 7.76279 10.8445 7.5 10.8445ZM11.8293 11.0082L14.9849 14.1702L14.1568 15L0.0151172 0.829776L0.843223 0L4.15061 3.31406C5.26236 2.6458 6.3871 2.30718 7.5 2.30718C9.03029 2.30718 10.5713 2.94173 12.0803 4.19318C13.2853 5.19255 14.1593 6.33499 14.5326 6.82283C14.6125 6.92734 14.7608 7.14619 14.7774 7.17082L15 7.49993L14.7775 7.82907C14.7608 7.85367 14.6125 8.07266 14.5326 8.17717C14.1391 8.69143 13.1692 9.95861 11.8293 11.0082ZM5.00851 4.17369L5.59028 4.75664C6.14701 4.36635 6.80918 4.15549 7.5 4.15549C9.34046 4.15549 10.8378 5.65581 10.8378 7.50001C10.8378 8.19367 10.6277 8.85635 10.2381 9.41382L10.9945 10.1718C12.2404 9.22861 13.1486 8.05693 13.5749 7.50004C11.5253 4.83302 9.48147 3.48071 7.5 3.48071C6.68531 3.48068 5.84977 3.71353 5.00851 4.17369ZM8.64188 7.49999C8.64188 7.59654 8.6298 7.69021 8.60736 7.77978L9.38927 8.56326C9.56991 8.24199 9.66665 7.87821 9.66665 7.49999C9.66665 6.30288 8.6947 5.32899 7.50003 5.32899C7.1233 5.32899 6.75987 5.42593 6.43896 5.60696L7.22083 6.39042C7.31019 6.3679 7.4037 6.35584 7.50003 6.35584C8.13064 6.35581 8.64188 6.86807 8.64188 7.49999ZM7.5 11.5193C5.51854 11.5193 3.47473 10.1669 1.42509 7.49996C1.71926 7.11574 2.30988 6.35331 3.105 5.59813L2.27654 4.768C1.40077 5.60338 0.767695 6.4304 0.467402 6.82286C0.38751 6.92734 0.239238 7.14619 0.222568 7.17085L0 7.49996L0.22251 7.8291C0.23915 7.8537 0.387451 8.07266 0.467402 8.1772C0.840645 8.66504 1.71472 9.80745 2.9197 10.8068C4.42866 12.0583 5.96971 12.6928 7.5 12.6928C8.24276 12.6928 8.99074 12.542 9.73658 12.2431L8.81713 11.3218C8.37375 11.453 7.93392 11.5193 7.5 11.5193Z" fill="#707070"/>
</svg>
