<svg width="12" height="15" viewBox="0 0 12 15" fill="none" xmlns="http://www.w3.org/2000/svg">
<path d="M10.2353 5.50781H3.99891V3.09873C3.99891 2.03625 4.89612 1.17188 5.99891 1.17188C7.10171 1.17188 7.99891 2.03625 7.99891 3.09873V4.21875H9.17538V3.09873C9.17538 1.39008 7.75041 0 5.99891 0C4.24741 0 2.82244 1.39008 2.82244 3.09873V5.50781H1.76471C0.791647 5.50781 0 6.29637 0 7.26562V13.2422C0 14.2114 0.791647 15 1.76471 15H10.2353C11.2084 15 12 14.2114 12 13.2422V7.26562C12 6.29637 11.2084 5.50781 10.2353 5.50781ZM10.8235 13.2422C10.8235 13.5653 10.5596 13.8281 10.2353 13.8281H1.76471C1.44035 13.8281 1.17647 13.5653 1.17647 13.2422V7.26562C1.17647 6.94254 1.44035 6.67969 1.76471 6.67969H10.2353C10.5596 6.67969 10.8235 6.94254 10.8235 7.26562V13.2422ZM7.08824 9.46289C7.08824 9.84609 6.88844 10.1826 6.58715 10.3753V11.6602C6.58715 11.9837 6.32376 12.2461 5.99891 12.2461C5.67403 12.2461 5.41068 11.9837 5.41068 11.6602V10.374C5.11059 10.181 4.91176 9.84516 4.91176 9.46289C4.91176 8.86421 5.39897 8.37891 6 8.37891C6.60103 8.37891 7.08824 8.86421 7.08824 9.46289Z" fill="#707070"/>
</svg>
